<?xml version="1.0" standalone="no"?><!DOCTYPE svg PUBLIC "-//W3C//DTD SVG 1.1//EN" "http://www.w3.org/Graphics/SVG/1.1/DTD/svg11.dtd"><svg class="icon" height="512" viewBox="0 0 1024 1024" version="1.1" xmlns="http://www.w3.org/2000/svg"><path d="M452.493721 782.338055l45.058219 0c-3.369747-11.316743-5.936199-22.984481-7.647167-34.92851l-37.411051 0L452.493721 782.338055 452.493721 782.338055zM452.493721 782.338055M801.780873 498.859725l0-14.083763L801.780873 366.31599c0-48.411593-39.137369-87.444585-87.424118-87.444585L695.249581 278.871405c-8.102538-39.801495-43.346227-69.861114-85.609797-69.861114l-17.427928 0c0-57.876152-46.912449-104.784508-104.789625-104.784508-57.876152 0-104.784508 46.908356-104.784508 104.784508l-17.432021 0c-42.315758 0-77.523631 30.004361-85.61082 69.861114l-19.102057 0c-48.344055 0-87.429235 39.153742-87.429235 87.444585l0 488.756623c0 48.411593 39.137369 87.444585 87.429235 87.444585l345.425194 0c-16.381086-9.864672-31.522947-21.621437-45.109384-34.92851l-300.491819 0c-28.904307 0-52.324716-23.455201-52.324716-52.42807l0-488.932632c0-28.956495 23.295566-52.42807 52.324716-52.42807l17.531282 0 0 69.855998 419.148265 0 0-69.855998 17.536398 0c28.900214 0 52.320623 23.452131 52.320623 52.42807l0 114.706485 0 17.925255L766.82064 498.859725l0 45.025473 34.963303 0 0-45.025473L801.780873 498.859725zM487.423255 261.407662c-28.936029 0-52.392254-23.456225-52.392254-52.397371 0-28.936029 23.456225-52.392254 52.392254-52.392254 28.940123 0 52.392254 23.456225 52.392254 52.392254C539.814486 237.951437 516.362354 261.407662 487.423255 261.407662zM407.030273 578.902736c2.257413-2.249227 3.446495-5.024433 3.571339-8.328689 0.124843-3.303232-0.938372-6.078439-3.195785-8.323573-2.252297-2.24411-5.010107-3.334955-8.270361-3.27151-3.254114 0.062422-6.011924 1.215688-8.269337 3.459798l-52.997028 52.750411-18.228153-17.955954c-2.258437-2.243087-5.016247-3.397377-8.270361-3.463891-3.2623-0.057305-6.016017 1.032516-8.269337 3.276626-2.257413 2.24411-3.415796 4.89345-3.478218 7.946996-0.063445 3.057639 1.031493 5.708002 3.289929 7.952112l26.122961 26.190499c2.252297 2.248204 5.198395 3.339048 8.832156 3.27151 3.629667-0.058328 6.580882-1.215688 8.833179-3.459798l-0.751107 0.751107L407.030273 578.902736 407.030273 578.902736 407.030273 578.902736zM720.710462 553.515532c-107.380636 0-194.428178 87.048565-194.428178 194.428178 0 107.379613 87.048565 194.428178 194.428178 194.428178 107.379613 0 194.428178-87.048565 194.428178-194.428178C915.13864 640.564098 828.090075 553.515532 720.710462 553.515532zM607.80602 888.425232l28.722158-68.810179c0 0 6.163373-22.934339 28.275997-22.934339L780.700765 796.680714c22.11467 0 28.975938 22.934339 28.975938 22.934339l23.938202 68.810179L607.80602 888.425232 607.80602 888.425232zM720.31035 790.949176c-49.356105 0-89.36533-41.075511-89.36533-91.745541 0-50.66696 40.008202-91.741447 89.36533-91.741447 49.356105 0 89.366354 41.074487 89.366354 91.741447C809.676703 749.873666 769.665431 790.949176 720.31035 790.949176L720.31035 790.949176zM705.648418 632.411417c-27.38572 10.035564 6.15314 45.843094-53.891398 66.792219 0 38.869263 30.693046 70.377884 68.553329 70.377884 37.864376 0 68.555375-31.508621 68.555375-70.377884C753.956657 669.6526 695.336562 683.299411 705.648418 632.411417L705.648418 632.411417zM705.648418 632.411417M343.755158 505.152035l-15.297404 0 0-45.181015c0-5.925966 0.233314-11.501962 0.711198-16.720823l-0.356111 0c-0.477884 1.660826-0.950651 3.679809-1.423419 6.04774-0.711198 3.084245-1.190105 5.336542-1.423419 6.758937-0.950651 3.323699-5.814426 19.688411-14.586207 49.095161l-13.162788 0c-9.727549-30.357402-14.942317-46.837748-15.653515-49.450249-0.23843-1.184989-0.711198-3.319605-1.423419-6.40385-0.950651-3.080152-1.545192-5.098111-1.778506-6.04774l-0.356111 0.356111c0.472767 7.115048 0.711198 13.401218 0.711198 18.85544l0 42.691311-14.230096 0 0-74.353428 23.124673 0c9.249665 32.018228 14.108323 48.739051 14.586207 50.16247 0.711198 3.558036 1.067308 6.28617 1.067308 8.182356l0.356111 0c0.233314-2.367931 0.711198-5.098111 1.423419-8.182356 0.472767-1.656733 4.980431-18.377556 13.518898-50.16247l24.191982 0L343.755158 505.152035zM396.051221 429.730275c22.530133 1.423419 34.625612 14.351869 36.287461 38.778188-1.190105 24.191982-13.402241 36.876885-36.643572 38.065967-23.246447-1.423419-35.458583-14.108323-36.643572-38.065967C360.236528 443.605284 372.571461 430.679903 396.051221 429.730275zM395.340023 493.767753c13.041014-0.473791 19.799952-8.893554 20.277836-25.25929-0.477884-16.364713-7.237845-24.90318-20.277836-25.614377-12.8077 0.949628-19.566638 9.487072-20.277836 25.614377C375.534955 484.639862 382.293893 493.055532 395.340023 493.767753zM519.499811 505.152035l-16.364713 0c-19.449981-30.594809-29.650297-46.604434-30.594809-48.027853-0.711198-1.184989-2.01796-3.675716-3.913123-7.471159 0 3.558036 0 7.949043 0 13.162788l0 42.335201-14.586207 0 0-74.353428 17.076934 0c18.972097 30.361495 28.816303 46.248324 29.5275 47.671743 2.134617 3.558036 3.558036 6.04774 4.269233 7.471159 0-0.711198 0-2.490727 0-5.336542-0.23843-3.080152-0.356111-5.098111-0.356111-6.04774l0-43.75862 14.942317 0L519.500834 505.152035zM610.218976 443.605284l-24.547069 0 0 61.546751-15.653515 0 0-61.546751-24.547069 0 0-12.8077 64.747653 0L610.218976 443.605284zM701.648314 505.152035l-15.653515 0 0-30.594809-34.152844 0 0 30.594809-15.653515 0 0-74.353428 15.653515 0 0 30.594809 34.152844 0 0-30.594809 15.653515 0L701.648314 505.152035zM584.180949 592.668251l-20.61041 20.158109-56.447617-55.994292 20.611433-20.157085c6.266727-6.268774 16.124236-7.170307 21.497617-1.795902l37.183877 36.290531C591.349209 576.537875 590.453816 586.393337 584.180949 592.668251L584.180949 592.668251 584.180949 592.668251 584.180949 592.668251 584.180949 592.668251 584.180949 592.668251zM497.2736 566.234205l-95.869465 93.629447-13.44522 14.771425-25.984814 23.738657c-0.887206 0.454348-2.682086 3.13541-3.127224 5.381567-0.447185 0.452301-0.447185 0.452301-0.447185 0.895393l-22.405289 69.435419c-0.887206 2.246157-0.441045 4.041036 0.900509 5.382591 1.345648 1.345648 3.585665 1.345648 5.379521 0.898463l70.777997-21.952988c0.453325-0.447185 0.453325-0.447185 0.900509-0.447185 2.681062-0.446162 4.481058-2.240017 4.927219-2.686179l135.286196-133.49848L497.2736 566.234205zM371.82854 760.214175l-14.782681-14.782681 9.408277-29.121248 34.948977 34.488489L371.82854 760.214175zM495.033583 595.355453l-105.726973 103.930047c-1.785669 1.788739-5.374404 1.788739-7.166213 0-2.242064-1.791809-2.242064-5.379521 0-7.167237l106.177228-103.931071c1.785669-1.785669 5.374404-1.785669 7.16826 0C497.2736 590.42721 497.2736 593.561597 495.033583 595.355453zM406.601508 646.651746 406.601508 592.355119 381.678886 617.276718 381.678886 641.393999 381.678886 651.627061 294.334585 651.627061 294.334585 589.177753 347.870896 589.177753 369.381815 567.666834 270.430152 567.666834 270.430152 673.136957 381.139603 672.113651ZM406.088832 743.110635 406.088832 707.34813 372.460943 707.34813ZM381.167233 775.135002 381.167233 781.075295 381.167233 791.308357 293.822932 791.308357 293.822932 728.85905 344.467379 728.85905 352.853373 707.34813 269.918499 707.34813 269.918499 812.818253 406.088832 812.818253 406.088832 766.827803Z" /></svg>